Coordinates
version=1
nRows=26
nColumns=38
inDegrees=no

Units are S.I. units (second, meters, Newtons, ...)
If the header above contains a line with 'inDegrees', this indicates whether rotational values are in degrees (yes) or radians (no).

endheader
time	pelvis_tilt	pelvis_list	pelvis_rotation	pelvis_tx	pelvis_ty	pelvis_tz	hip_flexion_r	hip_adduction_r	hip_rotation_r	knee_angle_r	ankle_angle_r	subtalar_angle_r	mtp_angle_r	hip_flexion_l	hip_adduction_l	hip_rotation_l	knee_angle_l	ankle_angle_l	subtalar_angle_l	mtp_angle_l	lumbar_extension	lumbar_bending	lumbar_rotation	arm_flex_r	arm_add_r	arm_rot_r	elbow_flex_r	pro_sup_r	wrist_flex_r	wrist_dev_r	arm_flex_l	arm_add_l	arm_rot_l	elbow_flex_l	pro_sup_l	wrist_flex_l	wrist_dev_l
2.05	0.0900457	-0.078161	0.0112504	0.916953	0.955482	-0.286717	0.041912	0.145336	-0.017751	-0.608383	0.359198	-0.00669168	8.85539e-05	0.422293	-0.0854451	-0.0103851	-1.42019	-0.0711954	-0.0202147	0.000200687	-0.380368	0.0818685	0.113797	-0.153957	-0.466107	0.124736	1.8328	1.52911	0.0517438	0.0158145	-0.441752	-0.329681	-0.0559686	1.94719	2.35121	0.079674	-0.0283897
2.06	0.0831871	-0.0660725	0.00470908	0.916742	0.959428	-0.286464	0.00577037	0.131989	-0.0092782	-0.568231	0.344515	-0.00669168	8.85539e-05	0.452161	-0.0729531	-0.0211272	-1.3778	-0.0583493	-0.0202147	0.000200687	-0.373288	0.0625281	0.126978	-0.140685	-0.470591	0.120742	1.85291	1.51762	0.0517438	0.0158145	-0.465374	-0.32845	-0.0644777	1.95053	2.34362	0.079674	-0.0283897
2.07	0.0750363	-0.0527654	-0.00263184	0.916681	0.963533	-0.28624	-0.0284885	0.116735	-0.0024657	-0.527714	0.3237	-0.00669168	8.85539e-05	0.47832	-0.0605982	-0.0358725	-1.32505	-0.0463627	-0.0202147	0.000200687	-0.364659	0.041727	0.140304	-0.130932	-0.474386	0.114532	1.87437	1.50355	0.0517438	0.0158145	-0.48984	-0.328047	-0.0734661	1.95539	2.32382	0.079674	-0.0283897
2.08	0.0660131	-0.0387515	-0.0101614	0.91676	0.967738	-0.286093	-0.0608855	0.100098	0.0017874	-0.487495	0.296662	-0.00669168	8.85539e-05	0.500196	-0.0484058	-0.0533648	-1.26207	-0.0350941	-0.0202147	0.000200687	-0.354916	0.0202946	0.153394	-0.124391	-0.477677	0.106489	1.89644	1.48801	0.0517438	0.0158145	-0.514591	-0.328247	-0.082911	1.96136	2.29337	0.079674	-0.0283897
2.09	0.056587	-0.0246583	-0.0173097	0.916984	0.971984	-0.286068	-0.0916276	0.0827703	0.00282898	-0.448103	0.263558	-0.00669168	8.85539e-05	0.517194	-0.0363897	-0.0721736	-1.18915	-0.0243715	-0.0202147	0.000200687	-0.344543	-0.00084821	0.165901	-0.120768	-0.480636	0.0970326	1.91852	1.47217	0.0517438	0.0158145	-0.53905	-0.328784	-0.0926653	1.96801	2.25522	0.079674	-0.0283897
2.1	0.0471999	-0.0111615	-0.0236321	0.917363	0.9762	-0.286194	-0.120978	0.0655529	0.000378569	-0.410046	0.224879	-0.00669168	8.85539e-05	0.528794	-0.0245849	-0.090804	-1.10683	-0.0140458	-0.0202147	0.000200687	-0.333994	-0.0207723	0.177556	-0.119788	-0.483409	0.0865986	1.94014	1.45719	0.0517438	0.0158145	-0.562706	-0.329361	-0.102504	1.97495	2.21316	0.079674	-0.0283897
2.11	0.0382087	0.00106732	-0.0288685	0.917919	0.980298	-0.286484	-0.149115	0.0492774	-0.00540132	-0.373933	0.181491	-0.00669168	8.85539e-05	0.534669	-0.0130877	-0.107833	-1.01606	-0.00404873	-0.0202147	0.000200687	-0.32363	-0.0386214	0.188192	-0.121199	-0.48612	0.0756088	1.961	1.44411	0.0517438	0.0158145	-0.58517	-0.329665	-0.112182	1.98194	2.17122	0.079674	-0.0283897
2.12	0.0298483	0.0114124	-0.0329681	0.918672	0.98417	-0.286934	-0.176024	0.0347208	-0.0139058	-0.34057	0.134603	-0.00669168	8.85539e-05	0.534773	-0.00209728	-0.122061	-0.918344	0.0055722	-0.0202147	0.000200687	-0.313676	-0.0536772	0.197766	-0.12476	-0.488865	0.0644507	1.98088	1.43379	0.0517438	0.0158145	-0.606181	-0.329387	-0.121478	1.98886	2.13302	0.079674	-0.0283897
2.13	0.0222252	0.0193646	-0.0360774	0.91964	0.987688	-0.287529	-0.201442	0.0225287	-0.0241668	-0.310998	0.0856637	-0.00669168	8.85539e-05	0.529408	0.00805937	-0.132666	-0.815823	0.014645	-0.0202147	0.000200687	-0.304216	-0.0654066	0.206343	-0.130236	-0.491719	0.0534627	1.99964	1.42683	0.0517438	0.0158145	-0.625584	-0.328241	-0.130227	1.99571	2.10139	0.079674	-0.0283897
2.14	0.0153479	0.0245661	-0.0384942	0.920835	0.990714	-0.288238	-0.224868	0.0131487	-0.0350035	-0.286478	0.0362017	-0.00669168	8.85539e-05	0.519227	0.0169384	-0.139318	-0.711318	0.0228771	-0.0202147	0.000200687	-0.295225	-0.073494	0.214066	-0.137382	-0.494733	0.0429305	2.01719	1.42349	0.0517438	0.0158145	-0.643289	-0.326005	-0.13832	2.0026	2.07802	0.079674	-0.0283897
2.15	0.0091807	0.0268469	-0.0405973	0.922263	0.993121	-0.289028	-0.24564	0.00677893	-0.0452231	-0.268411	-0.0123804	-0.00669168	8.85539e-05	0.505179	0.0240381	-0.142234	-0.608254	0.0298528	-0.0202147	0.000200687	-0.286642	-0.077858	0.221106	-0.145944	-0.497928	0.033086	2.03342	1.42371	0.0517438	0.0158145	-0.659223	-0.322546	-0.145707	2.00966	2.0634	0.079674	-0.0283897
2.16	0.00371022	0.0262476	-0.0427626	0.923923	0.994819	-0.289868	-0.263048	0.00333334	-0.0538395	-0.258237	-0.0590008	-0.00669168	8.85539e-05	0.488407	0.0289051	-0.142126	-0.510473	0.0350272	-0.0202147	0.000200687	-0.278448	-0.0786569	0.227591	-0.155654	-0.501295	0.0241075	2.04826	1.42709	0.0517438	0.0158145	-0.6733	-0.317839	-0.152391	2.01703	2.05693	0.079674	-0.0283897
2.17	-0.000989701	0.0230309	-0.0452771	0.925802	0.995766	-0.29073	-0.276463	0.00242648	-0.0602619	-0.257307	-0.103046	-0.00669168	8.85539e-05	0.470113	0.0312697	-0.140054	-0.421947	0.0377472	-0.0202147	0.000200687	-0.270746	-0.0762843	0.233531	-0.166238	-0.50479	0.0161189	2.0616	1.43301	0.0517438	0.0158145	-0.685409	-0.311978	-0.158427	2.0248	2.0572	0.079674	-0.0283897
2.18	-0.00471692	0.0176873	-0.0482613	0.927866	0.995963	-0.291599	-0.285442	0.00338357	-0.0644134	-0.26676	-0.144424	-0.00669168	8.85539e-05	0.45143	0.0311722	-0.137199	-0.346422	0.0373384	-0.0202147	0.000200687	-0.263801	-0.0713529	0.238751	-0.177424	-0.508325	0.00918767	2.07336	1.44074	0.0517438	0.0158145	-0.695414	-0.305164	-0.163909	2.033	2.06227	0.079674	-0.0283897
2.19	-0.00714756	0.0109203	-0.0516189	0.930058	0.995446	-0.292476	-0.28979	0.00528441	-0.0667457	-0.287411	-0.183503	-0.00669168	8.85539e-05	0.433332	0.0290383	-0.134615	-0.287072	0.0332913	-0.0202147	0.000200687	-0.258042	-0.0646605	0.242852	-0.188951	-0.511767	0.00332494	2.08341	1.4495	0.0517438	0.0158145	-0.703164	-0.297707	-0.168942	2.04161	2.07002	0.079674	-0.0283897
2.2	-0.00788363	0.00360602	-0.0550234	0.932301	0.994254	-0.29339	-0.289568	0.00704088	-0.0681416	-0.319655	-0.220931	-0.00669168	8.85539e-05	0.416601	0.0256775	-0.132993	-0.246219	0.0255274	-0.0202147	0.000200687	-0.254005	-0.0571359	0.245215	-0.200581	-0.514935	-0.00151497	2.09161	1.4586	0.0517438	0.0158145	-0.708496	-0.290012	-0.17362	2.05056	2.07845	0.079674	-0.0283897
2.21	-0.0065166	-0.00326771	-0.0579486	0.934466	0.992251	-0.294402	-0.285056	0.0075089	-0.0697375	-0.36342	-0.257368	-0.00669168	8.85539e-05	0.4018	0.0222009	-0.132509	-0.22512	0.0146824	-0.0202147	0.000200687	-0.252272	-0.0497617	0.245053	-0.212101	-0.517603	-0.00543642	2.0978	1.46754	0.0517438	0.0158145	-0.711229	-0.282565	-0.177994	2.05968	2.0859	0.079674	-0.0283897
2.22	-0.00270186	-0.00870607	-0.0597443	0.936474	0.989464	-0.295586	-0.276697	0.00561627	-0.072677	-0.418151	-0.293168	-0.00669168	8.85539e-05	0.389274	0.0198764	-0.132785	-0.223876	0.00230236	-0.0202147	0.000200687	-0.253393	-0.0434928	0.241514	-0.223331	-0.519506	-0.00860242	2.10175	1.4761	0.0517438	0.0158145	-0.711141	-0.27591	-0.182043	2.06874	2.0913	0.079674	-0.0283897
2.23	0.00374319	-0.0118351	-0.0597544	0.938284	0.986073	-0.297001	-0.265022	0.000502492	-0.0778383	-0.482834	-0.328098	-0.00669168	8.85539e-05	0.379128	0.0199471	-0.133007	-0.241453	-0.00917472	-0.0202147	0.000200687	-0.257815	-0.0391698	0.233834	-0.234141	-0.52035	-0.0112355	2.10318	1.48428	0.0517438	0.0158145	-0.707944	-0.270613	-0.185634	2.07737	2.09417	0.079674	-0.0283897
2.24	0.0128945	-0.0119787	-0.057458	0.93982	0.98214	-0.298688	-0.250539	-0.00832626	-0.0855792	-0.556046	-0.361153	-0.00669168	8.85539e-05	0.371228	0.0234133	-0.132187	-0.275758	-0.0167421	-0.0202147	0.000200687	-0.265793	-0.0374091	0.221517	-0.244483	-0.519834	-0.013619	2.10177	1.49225	0.0517438	0.0158145	-0.70127	-0.267222	-0.188489	2.08507	2.09463	0.079674	-0.0283897
2.25	0.0246292	-0.00875947	-0.0526175	0.941039	0.977849	-0.300651	-0.233685	-0.0208685	-0.0955553	-0.636047	-0.390556	-0.00669168	8.85539e-05	0.365141	0.0308393	-0.129489	-0.323802	-0.0174325	-0.0202147	0.000200687	-0.27736	-0.0385138	0.204514	-0.254423	-0.517673	-0.0160914	2.09716	1.50027	0.0517438	0.0158145	-0.690663	-0.26622	-0.190159	2.09117	2.09337	0.079674	-0.0283897
2.26	0.0386127	-0.00221621	-0.0453827	0.941888	0.973471	-0.302833	-0.21476	-0.036569	-0.106673	-0.720881	-0.413971	-0.00669168	8.85539e-05	0.360119	0.0422277	-0.124529	-0.381877	-0.00904454	-0.0202147	0.000200687	-0.292292	-0.0424364	0.183343	-0.264171	-0.513636	-0.0190227	2.089	1.50856	0.0517438	0.0158145	-0.675617	-0.267972	-0.190034	2.09486	2.09148	0.079674	-0.0283897
2.27	0.0543168	0.0071862	-0.0363278	0.942294	0.969225	-0.30511	-0.193859	-0.0543505	-0.117222	-0.808484	-0.428929	-0.00669168	8.85539e-05	0.355162	0.0569961	-0.117494	-0.445778	0.00928655	-0.0202147	0.000200687	-0.310073	-0.0487913	0.159108	-0.274074	-0.507569	-0.022765	2.07699	1.51724	0.0517438	0.0158145	-0.655648	-0.272686	-0.187402	2.09529	2.09037	0.079674	-0.0283897
2.28	0.0710028	0.0186323	-0.0263849	0.942203	0.965201	-0.307333	-0.170822	-0.0727687	-0.125194	-0.896796	-0.433397	-0.00669168	8.85539e-05	0.349192	0.074084	-0.109085	-0.511146	0.0369214	-0.0202147	0.000200687	-0.329876	-0.0569401	0.133367	-0.284569	-0.49942	-0.027579	2.06099	1.52632	0.0517438	0.0158145	-0.6304	-0.280375	-0.181568	2.09169	2.09151	0.079674	-0.0283897
2.29	0.0877583	0.0311423	-0.0166839	0.941629	0.961397	-0.309377	-0.145219	-0.0902564	-0.128717	-0.983849	-0.426325	-0.00669168	8.85539e-05	0.34132	0.0921515	-0.100302	-0.573944	0.0719948	-0.0202147	0.000200687	-0.350579	-0.0661073	0.107875	-0.29609	-0.489249	-0.0335512	2.04099	1.53571	0.0517438	0.0158145	-0.599757	-0.290842	-0.172001	2.08355	2.09617	0.079674	-0.0283897
2.3	0.103591	0.043697	-0.00832768	0.940645	0.95781	-0.31114	-0.116425	-0.105413	-0.126477	-1.06782	-0.40797	-0.00669168	8.85539e-05	0.33107	0.109835	-0.0921808	-0.630922	0.111952	-0.0202147	0.000200687	-0.370855	-0.0755256	0.0842521	-0.308965	-0.477242	-0.0405337	2.01727	1.54521	0.0517438	0.0158145	-0.563939	-0.30367	-0.158488	2.07077	2.10515	0.079674	-0.0283897
